<?xml version="1.0" encoding="UTF-8"?>
<svg width="33px" height="36px" viewBox="0 0 33 36" version="1.1" xmlns="http://www.w3.org/2000/svg" xmlns:xlink="http://www.w3.org/1999/xlink">
    <!-- Generator: Sketch 49.3 (51167) - http://www.bohemiancoding.com/sketch -->
    <title>qq-2</title>
    <desc>Created with Sketch.</desc>
    <defs></defs>
    <g id="Page-1" stroke="none" stroke-width="1" fill="none" fill-rule="evenodd">
        <g id="账号绑定/解绑" transform="translate(-1324.000000, -1117.000000)" fill="#aaaaaa">
            <g id="Group-6" transform="translate(360.000000, 91.000000)">
                <g id="Group-7" transform="translate(240.000000, 480.000000)">
                    <g id="Group-8" transform="translate(100.000000, 475.000000)">
                        <g id="Group-4" transform="translate(520.000000, 0.000000)">
                            <path d="M132.971954,87.7328623 C134.235187,84.3142435 131.889372,82.8749498 131.889372,82.8749498 C131.889372,76.5775329 126.656056,71 120.520438,71 C114.385084,71 109.332207,75.8579125 109.151715,82.8749498 C109.151715,82.8749498 106.986181,84.8541169 107.888482,87.9126093 C105.723159,88.9921981 102.655324,94.9296467 104.640366,98.708023 C105.181683,99.607654 106.444916,98.5280652 107.708201,96.3691511 C108.429958,98.708023 108.971223,99.4278543 110.415,101.047106 C106.444916,101.946737 106.8059,104.645524 108.068974,105.545103 C108.971223,106.264723 110.775773,106.804649 112.760814,106.984607 C116.730898,107.164354 118.896432,105.72506 119.618189,105.00544 L120.881422,105.00544 C121.603231,105.72506 123.768765,107.164354 127.738849,106.984607 C129.723838,106.804649 131.347896,106.444734 132.430689,105.72506 C133.152446,105.185398 134.054695,103.745893 132.430689,102.306652 C131.70888,101.766726 130.806631,101.227064 130.084663,101.047106 C131.347896,99.607654 132.430689,97.9884026 132.791673,96.1891933 C133.874414,98.5280652 135.137488,99.607654 135.678964,98.708023 C137.844287,94.389984 134.596223,89.1721559 132.971954,87.7328623" id="qq-2"></path>
                        </g>
                    </g>
                </g>
            </g>
        </g>
    </g>
</svg>
