<?xml version="1.0" encoding="UTF-8"?>
<svg width="18px" height="18px" viewBox="0 0 18 18" version="1.1" xmlns="http://www.w3.org/2000/svg" xmlns:xlink="http://www.w3.org/1999/xlink">
    <!-- Generator: Sketch 49.3 (51167) - http://www.bohemiancoding.com/sketch -->
    <title>评论灰色</title>
    <desc>Created with Sketch.</desc>
    <defs></defs>
    <g id="读者用户中心" stroke="none" stroke-width="1" fill="none" fill-rule="evenodd">
        <g id="icon" transform="translate(-129.000000, -294.000000)" fill="#AAAAAA">
            <path d="M138,294 C133.029517,294 129,297.475838 129,302 C129.103027,305.951172 132.103027,309.284505 138,312 L138,310 C142.970481,309.526465 146.999998,306.050627 146.999999,302 C147.002224,297.475838 142.972707,294 138,294 Z M142,303 C141.447966,303 141,302.55194 141,302 C141,301.447982 141.447966,301 142,301 C142.552009,301 142.999994,301.447982 143,302 C143.001898,302.55194 142.553912,303 142,303 Z M138,303 C137.447982,303 137,302.55194 137,302 C137,301.447982 137.447982,301 138,301 C138.552018,301 139,301.447982 139,302 C139,302.55194 138.552018,303 138,303 Z M134,303 C133.448028,303 133,302.55194 133,302 C133,301.447982 133.448028,301 134,301 C134.551953,301 135,301.447982 135,302 C135,302.55194 134.551953,303 134,303 Z" id="评论灰色"></path>
        </g>
    </g>
</svg>