<?xml version="1.0" encoding="UTF-8"?>
<svg width="26px" height="40px" viewBox="0 0 26 40" version="1.1" xmlns="http://www.w3.org/2000/svg" xmlns:xlink="http://www.w3.org/1999/xlink">
    <!-- Generator: Sketch 49.3 (51167) - http://www.bohemiancoding.com/sketch -->
    <title>手机</title>
    <desc>Created with Sketch.</desc>
    <defs></defs>
    <g id="Page-1" stroke="none" stroke-width="1" fill="none" fill-rule="evenodd">
        <g id="账号绑定/解绑" transform="translate(-808.000000, -341.000000)" fill="#ffffff">
            <g id="Group-6" transform="translate(360.000000, 91.000000)">
                <g id="Group-7" transform="translate(240.000000, 0.000000)">
                    <g id="Group-8" transform="translate(100.000000, 182.000000)">
                        <g id="Group-4">
                            <path d="M129.434901,68 L111.782688,68 C109.699259,68 108,69.6869783 108,71.750023 L108,104.250026 C108,106.313022 109.699259,108 111.782688,108 L129.434901,108 C131.513285,108 133.217391,106.313022 133.217391,104.250026 L133.217391,71.750023 C133.217391,69.6869783 131.513285,68 129.434901,68 Z M115.826087,70.6086957 L126.26087,70.6086957 L126.26087,69.7391304 L115.826087,69.7391304 L115.826087,70.6086957 Z M121.043478,105.391304 C119.601798,105.391304 118.434783,104.222003 118.434783,102.782481 C118.434783,101.343163 119.601594,100.173913 121.043478,100.173913 C122.480348,100.173913 123.652174,101.343163 123.652174,102.782481 C123.652174,104.222003 122.480348,105.391304 121.043478,105.391304 Z M110.608696,98.4347826 L130.608696,98.4347826 L130.608696,73.2173913 L110.608696,73.2173913 L110.608696,98.4347826 Z" id="手机"></path>
                        </g>
                    </g>
                </g>
            </g>
        </g>
    </g>
</svg>
