<?xml version="1.0" encoding="UTF-8"?>
<svg width="18px" height="17px" viewBox="0 0 18 17" version="1.1" xmlns="http://www.w3.org/2000/svg" xmlns:xlink="http://www.w3.org/1999/xlink">
    <!-- Generator: Sketch 49.3 (51167) - http://www.bohemiancoding.com/sketch -->
    <title>我的钱包</title>
    <desc>Created with Sketch.</desc>
    <defs></defs>
    <g id="Page-1" stroke="none" stroke-width="1" fill="none" fill-rule="evenodd">
        <g id="书架" transform="translate(-403.000000, -393.000000)" fill="#FF647C">
            <g id="Group-6" transform="translate(360.000000, 91.000000)">
                <g id="left">
                    <g id="Group-Copy-5" transform="translate(0.000000, 287.000000)">
                        <path d="M61,30.017357 C61,30.2600698 60.9569702,30.486203 60.8712083,30.6967603 C60.7854677,30.9067322 60.6631634,31.0917827 60.5046357,31.2517025 C60.346023,31.411267 60.1609926,31.535749 59.9494381,31.6245213 C59.738075,31.7134609 59.5067604,31.7582862 59.2554942,31.7586207 L44.8635557,31.7586207 C44.6124809,31.7586207 44.3746789,31.7141091 44.1500006,31.6245213 C43.9255137,31.5351636 43.7272532,31.4107025 43.5550275,31.2517025 C43.3828656,31.0923472 43.2474375,30.9072967 43.1484668,30.6967603 C43.0494322,30.4858894 43,30.2595053 43,30.017357 L43,20.4661543 C43,19.9809588 43.1750547,19.5692524 43.5251214,19.2312233 C43.8753158,18.8931106 44.3017217,18.7241379 44.8039775,18.7241379 L59.1959374,18.7241379 C59.6982783,18.7241379 60.1245991,18.8931106 60.4747297,19.2312233 C60.8249453,19.5692524 61,19.9809588 61,20.4661543 L61,23.0691746 L56.5000744,23.0691746 C55.9975634,23.0691746 55.5712425,23.2351367 55.221112,23.5670399 C54.8709176,23.8990267 54.6959267,24.3075343 54.6959267,24.7921653 C54.7089654,25.1241521 54.7816674,25.4177532 54.9141176,25.6729685 C55.0198948,25.889798 55.1949495,26.0875182 55.4393879,26.2664428 C55.6836774,26.4453047 56.0373814,26.5346416 56.5000744,26.5346416 L61,26.5346416 L61,30.018486 L61,30.017357 Z M57.8965517,18.1034483 L49.2068966,18.1034483 C49.8961544,17.7164009 50.5470082,17.3428772 51.1594171,16.9831945 C51.6955522,16.6789661 52.2250949,16.3746471 52.7482096,16.0707811 C53.2711805,15.7668245 53.6794325,15.5317101 53.9731301,15.3652792 C54.4198066,15.1023697 54.8185911,14.9814938 55.1692373,15.0022892 C55.5200478,15.0230846 55.816641,15.0887553 56.0591402,15.1993468 C56.3400022,15.3516422 56.5825218,15.5519844 56.7867608,15.8007132 L57.8965517,18.1034483 Z M55.4137931,24.6102196 C55.4137931,24.3509365 55.5034781,24.1326176 55.6826705,23.9555756 C55.861974,23.7783549 56.0826227,23.6896552 56.3449941,23.6896552 C56.6072101,23.6896552 56.827881,23.7783549 57.0069846,23.9555756 C57.1862659,24.1326176 57.2758621,24.3509365 57.2758621,24.6102196 C57.2758621,24.8694803 57.1862659,25.0912185 57.0069846,25.2753224 C56.827881,25.4595381 56.6072101,25.5517241 56.3449941,25.5517241 C56.0826227,25.5517241 55.861974,25.4595381 55.6826705,25.2753224 C55.5034781,25.0912185 55.4137931,24.8694803 55.4137931,24.6102196 Z" id="我的钱包"></path>
                    </g>
                </g>
            </g>
        </g>
    </g>
</svg>
