<?xml version="1.0" encoding="UTF-8"?>
<svg width="44px" height="36px" viewBox="0 0 44 36" version="1.1" xmlns="http://www.w3.org/2000/svg" xmlns:xlink="http://www.w3.org/1999/xlink">
    <!-- Generator: Sketch 49.3 (51167) - http://www.bohemiancoding.com/sketch -->
    <title>微信</title>
    <desc>Created with Sketch.</desc>
    <defs></defs>
    <g id="Page-1" stroke="none" stroke-width="1" fill="none" fill-rule="evenodd">
        <g id="账号绑定/解绑" transform="translate(-1058.000000, -1116.000000)" fill="#ffffff">
            <g id="Group-6" transform="translate(360.000000, 91.000000)">
                <g id="Group-7" transform="translate(240.000000, 480.000000)">
                    <g id="Group-8" transform="translate(100.000000, 475.000000)">
                        <g id="Group-4" transform="translate(260.000000, 0.000000)">
                            <path d="M141.902439,93.3771385 C141.902439,87.2676495 135.915007,82.2926829 129.179278,82.2926829 C122.04297,82.2926829 116.439024,87.2676495 116.439024,93.3771385 C116.439024,99.501967 122.04297,104.459495 129.179278,104.459495 C130.672127,104.459495 132.182068,104.071005 133.673914,103.699899 L137.786858,106 L136.661405,102.176887 C139.662349,99.8759789 141.902439,96.8133763 141.902439,93.3771385 Z M125.046551,91.4645593 C124.302,91.4645593 123.555602,90.7041025 123.555602,89.9407393 C123.555602,89.181951 124.302,88.4196104 125.046551,88.4196104 C126.175697,88.4196104 126.922939,89.181951 126.922939,89.9407393 C126.922939,90.7041025 126.175697,91.4645593 125.046551,91.4645593 Z M133.293066,91.4645593 C132.54767,91.4645593 131.802908,90.7041025 131.802908,89.9407393 C131.802908,89.181951 132.54767,88.4196104 133.293066,88.4196104 C134.420312,88.4196104 135.167765,89.181951 135.167765,89.9407393 C135.167765,90.7041025 134.402375,91.4645593 133.293066,91.4645593 Z M127.258641,80.7112601 C119.991804,80.7112601 114.247362,86.1609462 114.248153,92.8722624 C114.248153,93.980995 114.417554,95.0681956 114.72275,96.0918083 C114.248153,96.1407058 113.77192,96.1578889 113.298325,96.1578889 C111.400358,96.1578889 109.858866,95.7651178 107.944597,95.3911738 L102.591872,98.097561 L104.11627,93.4669877 C100.28789,90.7751319 98,87.3021887 98,83.0781224 C98,75.7556934 104.895009,70 113.298325,70 C120.822719,70 127.41174,74.5961541 128.731707,80.7962208 C128.241811,80.7454141 127.749276,80.7112601 127.258641,80.7112601 Z M119.023881,76.5385309 C117.887559,76.5385309 116.737837,77.3042383 116.720744,78.4637246 C116.720744,79.6205591 117.871257,80.3870621 119.023881,80.3870621 C120.174395,80.3870621 120.937095,79.6205591 120.937095,78.4637246 C120.937095,77.305246 120.17545,76.5385309 119.023881,76.5385309 Z M108.317375,80.385365 C109.470842,80.385365 110.232488,79.603323 110.233543,78.4618684 C110.233543,77.3042383 109.470842,76.5377354 108.317375,76.5377354 C107.165806,76.5377354 106.014238,77.3033898 106.014238,78.4618684 C106.014238,79.6197106 107.165015,80.385365 108.317375,80.385365 Z" id="微信"></path>
                        </g>
                    </g>
                </g>
            </g>
        </g>
    </g>
</svg>
