<?xml version="1.0" encoding="UTF-8"?>
<svg width="18px" height="18px" viewBox="0 0 18 18" version="1.1" xmlns="http://www.w3.org/2000/svg" xmlns:xlink="http://www.w3.org/1999/xlink">
    <!-- Generator: Sketch 49.3 (51167) - http://www.bohemiancoding.com/sketch -->
    <title>评论红色</title>
    <desc>Created with Sketch.</desc>
    <defs></defs>
    <g id="读者用户中心" stroke="none" stroke-width="1" fill="none" fill-rule="evenodd">
        <g id="icon" transform="translate(-89.000000, -294.000000)" fill="#FF647C">
            <path d="M97.9999995,294 C93.0295168,294 89,297.475838 89,302 C89.1030273,305.951172 92.1030272,309.284505 97.9999995,312 L97.9999995,310 C102.970481,309.526465 106.999998,306.050627 106.999999,302 C107.002224,297.475838 102.972707,294 97.9999995,294 Z M102,303 C101.447966,303 101,302.55194 101,302 C101,301.447982 101.447966,301 102,301 C102.552009,301 102.999994,301.447982 103,302 C103.001898,302.55194 102.553912,303 102,303 Z M98,303 C97.4479824,303 97,302.55194 97,302 C97,301.447982 97.4479824,301 98,301 C98.5520176,301 99,301.447982 99,302 C99,302.55194 98.5520176,303 98,303 Z M94,303 C93.4480277,303 93,302.55194 93,302 C93,301.447982 93.4480277,301 94,301 C94.5519529,301 95,301.447982 95,302 C95,302.55194 94.5519529,303 94,303 Z" id="评论红色"></path>
        </g>
    </g>
</svg>